<svg xmlns="http://www.w3.org/2000/svg" viewBox="0 0 59.19 52.9"><defs><style>.a,.b{fill:#423480}.a{opacity:.25}</style></defs><title>masquerade-symbol_1</title><path class="a" d="M40.93 20.94a19.19 19.19 0 0 1-8.5-1.62s4.45-3.54 7.48-4.58a13.68 13.68 0 0 1 9.53-.09 10.4 10.4 0 0 1-8.51 6.29zm-22.67 0a19.19 19.19 0 0 0 8.5-1.62s-4.45-3.54-7.48-4.58a13.68 13.68 0 0 0-9.53-.09 10.4 10.4 0 0 0 8.51 6.29z"/><path class="b" d="M.54 8.45A1.26 1.26 0 0 0 0 9.57v.33c.06.92.18 2.46.46 5a27.05 27.05 0 0 0 4.77 11.64c3.65 4.95 8.06 7.16 14.29 7.16 3.66 0 5.88-1.94 7.51-3.35 1-.88 1.81-1.58 2.57-1.58s1.55.7 2.57 1.58c1.62 1.41 3.84 3.35 7.51 3.35a17.11 17.11 0 0 0 9.13-2.3v20.87a.63.63 0 1 0 1.25 0V30.55a18.88 18.88 0 0 0 3.9-4 26.93 26.93 0 0 0 4.74-11.68c.29-2.52.4-4.06.47-5v-.32a1.27 1.27 0 0 0-.53-1.12 1.25 1.25 0 0 0-1.24-.1 7.65 7.65 0 0 1-.73.28 5.44 5.44 0 0 0 1.09-3.27 1.25 1.25 0 1 0-2.5 0 3 3 0 0 1-2.85 3c-.52-.26-1.06-.58-1.65-.94s-1.05-.62-1.62-.94a5.48 5.48 0 0 0 1.53-3.8 1.25 1.25 0 0 0-2.5 0A3 3 0 0 1 46.6 5.3a17.9 17.9 0 0 0-5.3-1.1 5.55 5.55 0 0 0 .87-3 1.25 1.25 0 0 0-2.5 0 3 3 0 0 1-2.4 2.94 19.43 19.43 0 0 0-5.1 1.13 8 8 0 0 1-2.59.6 8 8 0 0 1-2.6-.6 19.13 19.13 0 0 0-5.1-1.13 3 3 0 0 1-2.39-2.94 1.25 1.25 0 0 0-2.5 0 5.46 5.46 0 0 0 .87 3 18.08 18.08 0 0 0-5.3 1.1A3 3 0 0 1 11 2.67a1.25 1.25 0 0 0-2.5 0 5.49 5.49 0 0 0 1.5 3.8c-.58.32-1.12.64-1.62.94s-1.14.68-1.66.94a3 3 0 0 1-2.84-3 1.25 1.25 0 0 0-2.5 0 5.38 5.38 0 0 0 1.13 3.28 6.88 6.88 0 0 1-.74-.28 1.23 1.23 0 0 0-1.23.1zm9.16 1.1a25.85 25.85 0 0 1 3.17-1.67 1.16 1.16 0 0 0 .4-.16 15.51 15.51 0 0 1 4.83-1 23.38 23.38 0 0 1 3.53 0 4.53 4.53 0 0 0 .74.07 17.84 17.84 0 0 1 3.82.94 9.93 9.93 0 0 0 3.41.74 9.93 9.93 0 0 0 3.4-.79 17.84 17.84 0 0 1 3.82-.94 4.54 4.54 0 0 0 .75-.07 23.51 23.51 0 0 1 3.54 0 15.61 15.61 0 0 1 4.8 1 1.1 1.1 0 0 0 .42.17 26.43 26.43 0 0 1 3.16 1.67c2.1 1.26 4.1 2.46 7.06 1.75-.07.84-.18 1.91-.33 3.29A24.66 24.66 0 0 1 52 25.05c-3.18 4.31-6.85 6.15-12.27 6.15-2.73 0-4.33-1.39-5.87-2.74-1.24-1.08-2.52-2.19-4.21-2.19s-3 1.11-4.22 2.19c-1.54 1.35-3.14 2.74-5.86 2.74-5.43 0-9.1-1.84-12.28-6.15A24.66 24.66 0 0 1 3 14.59c-.15-1.38-.25-2.45-.33-3.29 2.93.7 4.93-.49 7.03-1.75z"/><path class="b" d="M32.16 19.88a20.14 20.14 0 0 0 7.76 1.72h1.06a10.91 10.91 0 0 0 9-6.69.62.62 0 0 0-.32-.79 14.12 14.12 0 0 0-10 .07c-3.1 1.07-7.48 4.53-7.67 4.68a.62.62 0 0 0 .12 1.05zm8-4.55a13.76 13.76 0 0 1 8.43-.33 9.61 9.61 0 0 1-7.71 5.31 18.05 18.05 0 0 1-7.2-1.17 29.46 29.46 0 0 1 6.44-3.81zM18.2 21.56h1.06A20.14 20.14 0 0 0 27 19.88a.62.62 0 0 0 .35-.49.6.6 0 0 0-.23-.56c-.19-.15-4.57-3.61-7.67-4.68a14.21 14.21 0 0 0-10-.07.62.62 0 0 0-.32.79 10.91 10.91 0 0 0 9.07 6.69zm.87-6.23a29.46 29.46 0 0 1 6.44 3.82 18.05 18.05 0 0 1-7.2 1.17A9.61 9.61 0 0 1 10.6 15a13.76 13.76 0 0 1 8.47.33zm3.98-2a1.09 1.09 0 0 0 .4.27 1.12 1.12 0 0 0 .48.1 1.26 1.26 0 0 0 .88-.37 1.3 1.3 0 0 0 .28-.41 1.23 1.23 0 0 0 .09-.47 1.94 1.94 0 0 0 0-.24 1 1 0 0 0-.08-.25 1.39 1.39 0 0 0-.11-.21 1.46 1.46 0 0 0-.16-.19 1.39 1.39 0 0 0-.19-.15l-.21-.12-.24-.07a1.25 1.25 0 0 0-1.49 1.23 1.23 1.23 0 0 0 .09.47 1.3 1.3 0 0 0 .26.41zm5.66 2.84a1.06 1.06 0 0 0 .41.26 1.13 1.13 0 0 0 .48.11 1.23 1.23 0 0 0 .88-.37 1.17 1.17 0 0 0 .27-.42 1.09 1.09 0 0 0 .1-.48 1.23 1.23 0 0 0-.37-.88 1.33 1.33 0 0 0-.19-.14 1.48 1.48 0 0 0-.21-.13l-.24-.07a1.27 1.27 0 0 0-1.13.34c-.05.07-.11.12-.15.19a1.19 1.19 0 0 0-.12.22 2.17 2.17 0 0 0-.07.24 2 2 0 0 0 0 .23 1.24 1.24 0 0 0 .09.48 1.51 1.51 0 0 0 .25.42zm7.71 8.55a2.26 2.26 0 0 0-.11-.22l-.16-.19a1.33 1.33 0 0 0-.19-.14l-.22-.17h-.23a1.27 1.27 0 0 0-1.13.34l-.15.19a1.19 1.19 0 0 0-.12.22A1.68 1.68 0 0 0 34 25a2 2 0 0 0 0 .25 1.31 1.31 0 0 0 .09.47 1.34 1.34 0 0 0 .27.4 1.09 1.09 0 0 0 .41.27 1.13 1.13 0 0 0 .48.11 1.2 1.2 0 0 0 .88-.38 1.18 1.18 0 0 0 .27-.4 1.14 1.14 0 0 0 .1-.47 1 1 0 0 0 0-.25 1 1 0 0 0-.08-.28zm-11.34 0a2.26 2.26 0 0 0-.08-.22c0-.07-.1-.12-.16-.19a1.33 1.33 0 0 0-.19-.14 1.48 1.48 0 0 0-.21-.13l-.27-.04a1.25 1.25 0 0 0-1.12.34 1.28 1.28 0 0 0-.37.9 1.21 1.21 0 0 0 .37.87 1 1 0 0 0 .4.27 1.13 1.13 0 0 0 .48.11 1.19 1.19 0 0 0 .88-.38 1.21 1.21 0 0 0 .37-.87 2 2 0 0 0 0-.25 1.13 1.13 0 0 0-.1-.27zm-5.67 2.83l-.11-.21a.93.93 0 0 0-.16-.18A.7.7 0 0 0 19 27l-.21-.12-.23-.08a1.39 1.39 0 0 0-.73.08l-.21.12a.58.58 0 0 0-.19.16.93.93 0 0 0-.16.18 1.43 1.43 0 0 0-.11.21 1.13 1.13 0 0 0-.08.24A2.29 2.29 0 0 0 17 28a1 1 0 0 0 .1.47 1.13 1.13 0 0 0 .27.41 1.44 1.44 0 0 0 .4.28 1.51 1.51 0 0 0 .48.09 1.22 1.22 0 0 0 .88-.37 1.13 1.13 0 0 0 .27-.41 1 1 0 0 0 .1-.47 1.13 1.13 0 0 0 0-.25 1.09 1.09 0 0 0-.09-.2zm22.68 0l-.09-.21a.93.93 0 0 0-.16-.18.7.7 0 0 0-.19-.16l-.21-.12-.24-.07a1.28 1.28 0 0 0-1.12.35.93.93 0 0 0-.16.18l-.12.21a2.17 2.17 0 0 0-.07.24 2.29 2.29 0 0 0 0 .25 1.19 1.19 0 0 0 .09.47 1.3 1.3 0 0 0 .28.41 1.2 1.2 0 0 0 .88.37 1.23 1.23 0 0 0 .88-.37 1.13 1.13 0 0 0 .27-.41 1.2 1.2 0 0 0 .1-.47 1.13 1.13 0 0 0 0-.25 1.09 1.09 0 0 0-.14-.24zm5.67-2.83a2.26 2.26 0 0 0-.11-.22c0-.07-.1-.12-.16-.19a.85.85 0 0 0-.19-.14l-.22-.17h-.23a1.27 1.27 0 0 0-1.13.34 1.31 1.31 0 0 0-.36.9 1.23 1.23 0 0 0 .36.87 1.22 1.22 0 0 0 1.77 0 1.24 1.24 0 0 0 .36-.87 1 1 0 0 0 0-.25 1 1 0 0 0-.09-.27zm-34.48-.55a1.48 1.48 0 0 0-.21-.13l-.24-.04a1.25 1.25 0 0 0-1.12.34 1.26 1.26 0 0 0-.37.9 1.31 1.31 0 0 0 .09.47 1.38 1.38 0 0 0 .28.4 1 1 0 0 0 .4.27 1.2 1.2 0 0 0 1 0 1 1 0 0 0 .4-.27 1.18 1.18 0 0 0 .27-.4 1.14 1.14 0 0 0 .1-.47 1.26 1.26 0 0 0-.37-.9.67.67 0 0 0-.23-.17zm-5.83-2.34a1.22 1.22 0 0 0 .41.27 1.12 1.12 0 0 0 .48.1 1.15 1.15 0 0 0 .48-.1 1.05 1.05 0 0 0 .4-.27 1.13 1.13 0 0 0 .27-.41 1.07 1.07 0 0 0 .1-.47 1.24 1.24 0 0 0-.37-.89 1.31 1.31 0 0 0-1.77 0 1.27 1.27 0 0 0-.36.89 1.23 1.23 0 0 0 .09.47 1.46 1.46 0 0 0 .27.41zM49.61 21a1.24 1.24 0 0 0 .36.87 1.09 1.09 0 0 0 .41.27 1.13 1.13 0 0 0 .48.11 1.2 1.2 0 0 0 .48-.11 1.05 1.05 0 0 0 .4-.27 1.21 1.21 0 0 0 .37-.87 1.29 1.29 0 0 0-.37-.9.85.85 0 0 0-.19-.14l-.21-.13-.24-.07a2 2 0 0 0-.49 0l-.23.07-.22.13a1.15 1.15 0 0 0-.19.14 1.28 1.28 0 0 0-.36.9zm3.2-4.83a1.24 1.24 0 0 0 1.77 0 1.17 1.17 0 0 0 .27-.42 1.22 1.22 0 0 0 .09-.46 1 1 0 0 0 0-.25 2.17 2.17 0 0 0-.07-.24 1.19 1.19 0 0 0-.12-.22 1.25 1.25 0 0 0-.15-.19.85.85 0 0 0-.19-.14l-.22-.13-.23-.07a1.35 1.35 0 0 0-.49 0l-.24.07-.21.13a.85.85 0 0 0-.19.14c-.06.07-.11.12-.16.19a2.26 2.26 0 0 0-.11.22 1.09 1.09 0 0 0-.07.24 1 1 0 0 0 0 .25 1.23 1.23 0 0 0 .1.46 1.17 1.17 0 0 0 .22.42zm-48.55-.88a1.31 1.31 0 0 0 .09.47 1.22 1.22 0 0 0 .27.41 1 1 0 0 0 .41.26 1.08 1.08 0 0 0 1 0 1.06 1.06 0 0 0 .41-.26 1.39 1.39 0 0 0 .27-.41 1.29 1.29 0 0 0-.27-1.37 1.27 1.27 0 0 0-1.13-.34l-.31.07-.22.13a1.33 1.33 0 0 0-.19.14 1.31 1.31 0 0 0-.33.9zm13.12-4.79a1 1 0 0 0 .4.26 1.13 1.13 0 0 0 .48.11 1.22 1.22 0 0 0 .88-.37 1.13 1.13 0 0 0 .27-.41 1.17 1.17 0 0 0 .1-.47 1.29 1.29 0 0 0-.37-.9 1.33 1.33 0 0 0-.14-.14.75.75 0 0 0-.21-.12c-.08 0-.16-.05-.23-.08a1.3 1.3 0 0 0-.73.08.63.63 0 0 0-.21.12.94.94 0 0 0-.19.14 1.25 1.25 0 0 0-.37.9 1.17 1.17 0 0 0 .1.47 1.13 1.13 0 0 0 .22.41zm17.41 3.1a1.12 1.12 0 0 0 .48.1 1.28 1.28 0 0 0 .88-.37 1.25 1.25 0 0 0 .37-.88 1 1 0 0 0 0-.24 1 1 0 0 0-.07-.25 1.39 1.39 0 0 0-.11-.21 1.46 1.46 0 0 0-.16-.19 1.39 1.39 0 0 0-.19-.15l-.22-.12a1.55 1.55 0 0 0-.23-.08 1.26 1.26 0 0 0-1.13 2.12 1.22 1.22 0 0 0 .38.27zm5.27-3.1a1.2 1.2 0 0 0 .88.37 1.23 1.23 0 0 0 .88-.37 1.13 1.13 0 0 0 .27-.41 1.37 1.37 0 0 0 .1-.47 1 1 0 0 0 0-.25 1.09 1.09 0 0 0-.07-.24 1.39 1.39 0 0 0-.12-.21l-.16-.2a1.33 1.33 0 0 0-.19-.14.75.75 0 0 0-.21-.12 2.25 2.25 0 0 0-.24-.08 1.25 1.25 0 0 0-1.12.34l-.16.2a1.43 1.43 0 0 0-.12.21 2.17 2.17 0 0 0-.07.24 1.81 1.81 0 0 0 0 .25 1.35 1.35 0 0 0 .09.47 1.3 1.3 0 0 0 .24.41z"/></svg>